<?xml version="1.0" standalone="no"?>
<!DOCTYPE svg PUBLIC "-//W3C//DTD SVG 20010904//EN"
 "http://www.w3.org/TR/2001/REC-SVG-20010904/DTD/svg10.dtd">
<svg version="1.0" xmlns="http://www.w3.org/2000/svg"
 width="803.000000pt" height="720.000000pt" viewBox="0 0 803.000000 720.000000"
 preserveAspectRatio="xMidYMid meet">
<metadata>
Created by potrace 1.16, written by Peter Selinger 2001-2019
</metadata>
<g transform="translate(0.000000,720.000000) scale(0.100000,-0.100000)"
fill="#000000" stroke="none">
<path d="M973 7177 c-43 -32 -93 -80 -93 -90 0 -4 4 -6 10 -2 5 3 0 -15 -11
-39 -19 -44 -19 -65 -17 -675 2 -346 -1 -620 -5 -609 -4 12 -6 304 -5 649 2
346 0 621 -4 611 -4 -9 -7 -294 -7 -633 -1 -691 -4 -657 72 -737 44 -46 124
-93 154 -91 12 0 10 3 -7 8 -49 15 -105 50 -135 83 l-30 33 35 -31 c74 -67
112 -79 250 -79 138 0 176 12 250 79 l35 31 -30 -33 c-30 -33 -86 -68 -135
-83 -17 -5 -19 -8 -7 -8 60 -3 196 113 216 185 7 26 10 237 9 649 l-3 610 -5
-627 c-3 -344 -7 -629 -10 -631 -3 -3 -5 281 -5 631 0 350 -4 648 -9 661 -6
18 -5 22 5 16 8 -4 3 3 -11 15 -14 12 -19 19 -12 15 23 -12 12 11 -20 41 -80
75 -70 72 -268 72 -166 0 -182 -2 -207 -21z"/>
<path d="M2885 7190 c-3 -4 5 -6 17 -4 23 4 23 4 0 -6 -13 -5 -27 -8 -31 -5
-13 7 -90 -64 -107 -99 l-16 -31 26 30 25 30 -25 -50 -25 -50 3 -632 c2 -347
-1 -622 -5 -611 -4 12 -6 304 -5 649 2 346 0 621 -4 611 -4 -9 -7 -294 -7
-632 1 -620 4 -685 37 -685 5 0 14 -4 19 -9 5 -5 3 -6 -4 -2 -27 15 -11 -12
30 -51 45 -44 115 -84 144 -82 12 0 10 3 -7 8 -49 15 -105 50 -135 83 l-30 33
35 -31 c74 -67 112 -79 250 -79 140 0 176 12 255 84 l40 36 -35 -38 c-34 -38
-89 -72 -140 -88 -17 -5 -19 -8 -7 -8 60 -3 196 113 216 185 12 43 15 1246 3
1276 -4 10 -6 -265 -4 -611 1 -345 -1 -637 -5 -649 -4 -11 -8 266 -8 616 0
350 -4 648 -9 661 -6 17 -5 22 4 16 7 -4 6 4 -4 22 -15 30 -80 94 -113 111
-22 12 -371 14 -378 2z"/>
<path d="M4755 7177 c-70 -48 -126 -120 -125 -159 1 -7 7 2 15 20 20 45 25 40
9 -9 -12 -34 -14 -148 -12 -664 2 -343 1 -621 -2 -618 -3 2 -7 287 -10 631
l-5 627 -2 -615 c-3 -599 -2 -616 18 -660 11 -25 37 -62 57 -83 40 -41 120
-88 149 -86 12 0 10 3 -7 8 -49 15 -105 50 -135 83 l-30 33 35 -31 c74 -67
112 -79 250 -79 140 0 176 12 255 84 l40 36 -35 -38 c-34 -38 -89 -72 -140
-88 -17 -5 -19 -8 -7 -8 60 -3 196 113 216 185 12 43 15 1246 3 1276 -4 10 -7
-275 -7 -632 0 -496 -3 -652 -12 -661 -10 -10 -10 -5 -2 23 12 46 8 1265 -5
1292 -7 15 -6 17 3 12 9 -6 8 1 -3 21 -15 30 -80 94 -113 111 -10 6 -97 10
-193 10 -161 0 -178 -2 -205 -21z"/>
<path d="M6645 7177 c-42 -29 -85 -69 -85 -79 0 -5 5 -6 12 -2 7 4 8 3 4 -5
-4 -6 -11 -9 -16 -6 -5 3 -17 -9 -27 -27 -17 -31 -18 -76 -18 -658 l-1 -625 6
625 c4 483 8 630 18 648 19 33 21 27 6 -19 -12 -33 -14 -148 -12 -657 2 -339
6 -626 11 -637 4 -11 1 -6 -7 10 -8 17 -15 24 -16 17 0 -24 38 -87 77 -123 42
-41 112 -79 140 -78 12 0 10 3 -7 8 -49 15 -105 50 -135 83 l-30 33 35 -31
c74 -67 112 -79 250 -79 116 0 129 2 176 27 27 14 67 45 87 67 20 23 37 37 37
33 0 -4 -19 -26 -42 -49 -43 -40 -89 -69 -138 -84 -17 -5 -19 -8 -7 -8 55 -3
182 99 212 171 23 56 23 1257 0 1312 -9 20 -20 34 -25 31 -5 -3 -12 0 -16 6
-4 8 -3 9 4 5 7 -4 12 -3 12 2 0 11 -79 85 -106 100 -11 6 -96 10 -194 10
-161 0 -178 -2 -205 -21z"/>
<path d="M176 6210 c-26 -10 -57 -27 -67 -36 -14 -12 -19 -13 -19 -4 0 9 -6 8
-20 -5 -22 -20 -27 -40 -7 -29 6 4 3 -2 -7 -14 -23 -26 -34 -29 -16 -4 7 9 1
4 -14 -11 l-26 -28 0 -2940 c0 -2638 1 -2943 15 -2972 14 -29 14 -30 0 -13 -8
11 -15 16 -15 12 0 -29 85 -127 132 -152 40 -21 7726 -21 7766 0 47 25 132
123 132 152 0 4 -7 -1 -15 -12 -14 -17 -14 -16 0 13 14 29 15 330 13 2975 -2
2346 -6 2943 -15 2944 -26 3 -28 4 -15 13 10 6 9 11 -4 22 -12 9 -15 10 -10 2
11 -19 1 -16 -15 4 -10 11 -10 14 -1 9 19 -12 14 9 -8 29 -14 13 -20 14 -20 5
0 -9 -5 -8 -19 4 -10 9 -42 26 -70 37 -46 17 -78 19 -316 19 l-265 0 0 -252
c0 -139 -4 -258 -8 -265 -4 -6 -7 109 -6 255 l0 267 -5 -270 c-4 -188 -10
-277 -19 -292 -15 -26 -15 -36 -2 -28 16 10 11 -1 -7 -16 -15 -12 -16 -12 -8
1 5 8 -9 -1 -31 -20 -21 -20 -54 -42 -72 -49 -18 -8 -31 -16 -28 -18 4 -5 60
22 86 41 9 6 6 1 -7 -11 -12 -11 -47 -31 -79 -42 -165 -62 -417 -47 -542 33
-34 22 -103 88 -74 72 15 -9 15 -1 -1 27 -8 15 -14 104 -18 297 l-5 275 0
-282 c1 -154 -2 -276 -6 -270 -4 7 -8 132 -8 280 l0 267 -525 0 -525 0 -1
-257 c0 -142 -4 -267 -9 -278 l-9 -20 -1 20 c-1 18 -2 17 -11 -4 -5 -14 -8
-30 -5 -38 3 -7 0 -15 -6 -19 -7 -5 -8 -2 -3 7 8 12 6 12 -8 0 -20 -16 -23
-36 -4 -25 8 5 8 2 -2 -9 -15 -18 -26 -23 -16 -7 3 6 2 10 -4 10 -5 0 -13 -5
-16 -10 -18 -29 -128 -68 -235 -84 -18 -2 -15 -4 10 -5 48 -1 130 22 185 52
25 14 43 22 40 16 -10 -15 -86 -51 -140 -65 -77 -21 -202 -27 -295 -15 -95 12
-207 60 -250 107 -14 15 -19 24 -11 19 9 -5 12 -3 9 6 -3 8 -10 14 -16 14 -5
0 -14 4 -19 9 -5 6 -2 6 6 1 11 -7 13 -4 5 11 -5 10 -11 143 -14 294 l-6 275
0 -272 c1 -149 -2 -269 -6 -266 -5 2 -8 123 -8 269 l0 264 -525 0 -525 0 0
-264 c0 -146 -3 -267 -7 -269 -5 -3 -8 117 -7 266 l0 272 -6 -275 c-3 -151 -9
-284 -14 -294 -8 -15 -6 -18 5 -11 8 5 11 5 6 -1 -5 -5 -14 -9 -20 -9 -5 0
-12 -6 -15 -14 -3 -9 0 -11 9 -6 8 5 3 -4 -11 -19 -13 -15 -56 -43 -95 -62
-142 -70 -386 -70 -531 1 -38 19 -79 44 -90 56 -10 12 -13 19 -6 15 18 -11 15
9 -5 25 -15 12 -16 12 -8 -1 4 -8 4 -12 0 -7 -14 12 -17 49 -24 332 l-7 270 0
-277 c1 -153 -2 -270 -6 -260 -4 9 -7 133 -7 275 l-1 257 -525 0 -525 0 0
-267 c0 -148 -4 -273 -8 -280 -4 -6 -7 116 -6 270 l0 282 -5 -275 c-4 -193
-10 -282 -18 -297 -16 -28 -16 -36 0 -27 28 16 -41 -50 -75 -72 -125 -80 -377
-95 -542 -33 -32 11 -67 31 -79 42 -13 12 -16 17 -7 11 26 -19 82 -46 86 -41
3 2 -10 10 -28 18 -18 7 -51 29 -72 49 -22 19 -36 28 -31 20 8 -13 7 -13 -8
-1 -18 15 -23 26 -7 16 13 -8 13 2 -3 28 -8 15 -14 104 -18 292 l-5 270 0
-267 c1 -146 -2 -261 -6 -255 -4 7 -8 126 -8 265 l0 252 -267 0 c-239 -1 -273
-3 -317 -20z m7212 -1271 c28 -5 58 -17 68 -25 13 -9 6 -8 -21 4 -38 16 -226
17 -3420 17 -3235 0 -3382 -1 -3420 -18 -22 -10 -35 -13 -28 -6 38 38 -11 38
3440 38 2310 1 3347 -2 3381 -10z m47 -33 c22 -11 44 -22 49 -24 5 -3 5 2 1 9
-5 8 2 5 14 -6 13 -11 27 -29 33 -40 5 -11 -2 -7 -16 10 l-26 30 20 -36 c20
-36 20 -43 18 -2201 -2 -1442 0 -2164 7 -2160 6 3 6 1 2 -4 -5 -5 -14 -9 -20
-9 -5 0 -12 -6 -15 -14 -3 -9 0 -11 9 -6 8 5 6 -1 -4 -13 -11 -11 -39 -30 -63
-41 l-44 -21 -3385 0 -3385 0 -44 21 c-24 11 -52 30 -63 41 -10 12 -12 18 -4
13 9 -5 12 -3 9 6 -3 8 -10 14 -15 14 -6 0 -15 4 -20 9 -4 5 -4 7 2 4 7 -4 9
718 7 2160 -2 2158 -2 2165 18 2201 l20 36 -26 -30 c-14 -17 -21 -21 -16 -10
6 11 20 29 33 40 12 11 19 14 15 8 -10 -17 0 -16 29 3 13 8 45 19 72 24 26 4
1556 7 3398 6 3298 -1 3351 -1 3390 -20z m-6948 -3323 c-1 -593 -2 -108 -2
1077 0 1185 1 1670 2 1078 2 -593 2 -1563 0 -2155z m7060 0 c-1 -593 -2 -108
-2 1077 0 1185 1 1670 2 1078 2 -593 2 -1563 0 -2155z"/>
<path d="M2890 4415 l0 -405 535 0 535 0 0 405 0 405 -535 0 -535 0 0 -405z"/>
<path d="M4030 4415 l0 -405 530 0 530 0 0 405 0 405 -530 0 -530 0 0 -405z"/>
<path d="M5160 4415 l0 -405 530 0 530 0 0 405 0 405 -530 0 -530 0 0 -405z"/>
<path d="M6290 4415 l0 -405 535 0 535 0 0 405 0 405 -535 0 -535 0 0 -405z"/>
<path d="M630 3545 l0 -405 530 0 530 0 0 405 0 405 -530 0 -530 0 0 -405z"/>
<path d="M1767 3943 c-4 -3 -7 -186 -7 -405 l0 -398 530 0 530 0 0 405 0 405
-523 0 c-288 0 -527 -3 -530 -7z"/>
<path d="M2897 3943 c-4 -3 -7 -186 -7 -405 l0 -398 535 0 535 0 -2 403 -3
402 -526 3 c-289 1 -529 -1 -532 -5z"/>
<path d="M4030 3545 l0 -405 530 0 530 0 0 405 0 405 -530 0 -530 0 0 -405z"/>
<path d="M5167 3943 c-4 -3 -7 -186 -7 -405 l0 -398 530 0 530 0 0 405 0 405
-523 0 c-288 0 -527 -3 -530 -7z"/>
<path d="M6297 3943 c-4 -3 -7 -186 -7 -405 l0 -398 535 0 535 0 -2 403 -3
402 -526 3 c-289 1 -529 -1 -532 -5z"/>
<path d="M630 2675 l0 -405 530 0 530 0 0 405 0 405 -530 0 -530 0 0 -405z"/>
<path d="M1760 2675 l0 -405 533 2 532 3 0 400 0 400 -532 3 -533 2 0 -405z"/>
<path d="M2890 2675 l0 -405 535 0 535 0 0 405 0 405 -535 0 -535 0 0 -405z"/>
<path d="M4030 2675 l0 -405 530 0 530 0 0 405 0 405 -530 0 -530 0 0 -405z"/>
<path d="M5160 2675 l0 -405 530 0 530 0 0 405 0 405 -530 0 -530 0 0 -405z"/>
<path d="M6290 2675 l0 -405 535 0 535 0 0 405 0 405 -535 0 -535 0 0 -405z"/>
<path d="M630 1805 l0 -405 530 0 530 0 0 405 0 405 -530 0 -530 0 0 -405z"/>
<path d="M1760 1805 l0 -405 533 2 532 3 0 400 0 400 -532 3 -533 2 0 -405z"/>
<path d="M2892 1808 l3 -403 533 -3 532 -2 0 405 0 405 -535 0 -535 0 2 -402z"/>
<path d="M4030 1805 l0 -405 530 0 530 0 0 405 0 405 -530 0 -530 0 0 -405z"/>
<path d="M5160 1805 l0 -405 530 0 530 0 0 405 0 405 -530 0 -530 0 0 -405z"/>
<path d="M6290 1805 l0 -405 535 0 535 0 0 405 0 405 -535 0 -535 0 0 -405z"/>
<path d="M630 935 l0 -405 530 0 530 0 0 405 0 405 -530 0 -530 0 0 -405z"/>
<path d="M1760 935 l0 -405 533 2 532 3 0 400 0 400 -532 3 -533 2 0 -405z"/>
<path d="M2890 935 l0 -405 535 0 535 0 0 405 0 405 -535 0 -535 0 0 -405z"/>
<path d="M4030 935 l0 -405 530 0 530 0 0 405 0 405 -530 0 -530 0 0 -405z"/>
<path d="M5160 935 l0 -405 530 0 530 0 0 405 0 405 -530 0 -530 0 0 -405z"/>
<path d="M618 398 c22 -9 6772 -9 6794 0 10 4 -1519 7 -3397 7 -1878 0 -3407
-3 -3397 -7z"/>
</g>
</svg>
